<?xml version="1.0" encoding="utf-8"?>
<!-- Generator: Adobe Illustrator 28.3.0, SVG Export Plug-In . SVG Version: 6.00 Build 0)  -->
<svg version="1.1" id="Isolation_Mode" xmlns="http://www.w3.org/2000/svg" xmlns:xlink="http://www.w3.org/1999/xlink" x="0px"
	 y="0px" viewBox="0 0 243 108" style="enable-background:new 0 0 243 108;" xml:space="preserve">
<style type="text/css">
	.st0{fill:#FFFFFF;}
	.st1{fill:#469149;}
	.st2{fill:#E02A26;}
	.st3{fill:#E0E1E0;}
</style>
<g>
	<g>
		<path class="st0" d="M186.8,56.6c-0.8,0-1.8,0-2.6,0c0,0,0-0.2-0.2-0.2c-0.8-2.6-1.6-5.2-2.6-7.8c-0.6-1.6-1.4-3.4-2.2-5
			s-1.8-3-3.2-4.4c-0.6-0.6-1.2-1.2-2-1.8c-0.2-0.2-0.4-0.2-0.4-0.4c-5.2,0-10.4,0-15.3,0c0,0.4,0,0.8,0,1.2s0,0.8,0,1.2
			s0,0.8,0,1.2c0,0.4,0,0.8,0,1.2s0,0.8,0,1.2s0,0.8,0,1.2c0,0.4,0,0.8,0,1.2s0,0.8,0,1.2s0,0.8,0,1.2c0,0.4,0,0.8,0,1.2
			s0,0.8,0,1.2s0,0.8,0,1.2c0,0.4,0,0.8,0,1.2s0,0.8,0,1.2s0,0.8,0,1.2c0,0.4,0,0.8,0,1.2s0,0.8,0,1.2c-0.8,0-1.6,0-2.4,0
			c0-0.2,0-0.2,0-0.4c0-9.2,0-18.3,0-27.5c0.2-2.2,0-4.4,0-6.6s0-4.4,0-6.6c0-0.2,0-0.2,0-0.4c0.2,0,0.4,0,0.6,0c2.6,0,5.2,0,7.8,0
			c1.8,0,3.4,0,5.2,0s3.4,0,5.2,0c1.2,0,2.4,0.2,3.6,0.6c1.4-0.4,3,0.6,4.4,1.8c1.4,1.2,2.6,2.8,3.2,4.6c0.4,1,0.6,2,0.6,3
			c0,1,0,2.2-0.4,3.2c-0.4,1.2-0.8,2.2-1.6,3.2c-0.4,0.6-0.8,1-1.2,1.4c-0.8,0.8-1.8,1.4-2.8,2c-1,0.6-2,0.8-3,1.2c0,0,0,0-0.2,0
			c0,0,0,0,0,0.2c1.2,1,2.2,2.4,3.2,3.8c1,1.8,2,3.8,2.8,5.8s1.6,4.2,2.2,6.4c0.4,1.2,0.8,2.4,1.2,3.6
			C186.6,56.4,186.6,56.4,186.8,56.6z M158.3,34.7c0.2,0,0.4,0,0.6,0c2.4,0,5,0,7.4,0c2.6,0,5.4,0,8,0c0.6,0,1.2,0,1.8-0.2
			c2.4-0.4,4.4-1.4,6-3.2c0.4-0.6,1-1.2,1.2-1.8c0.4-1,0.8-2.2,0.8-3.4c0-0.2,0-0.6,0-0.8c0-1-0.4-2-0.8-2.8c-0.6-1-1.2-1.8-2-2.4
			c-1.8-1.6-4-2.4-6.2-2.4c-5.4,0-10.6,0-15.9,0c-0.2,0-0.2,0-0.4,0C158.3,23.3,158.3,29.1,158.3,34.7z"/>
		<path class="st0" d="M2.6,56.6c-0.4,0-2,0-2.4,0c0-0.2,0-0.2,0-0.4c0-9,0-17.9,0-26.7c0.2-2.4,0-4.6,0-7c0-2.2,0-4.6,0-6.8
			c0-0.2,0-0.2,0-0.4c0.2,0,0.4,0,0.6,0c2.6,0,5.2,0,7.8,0c1.8,0,3.4,0,5.2,0s3.4,0,5.2,0c2.2,0,4.4,0.6,6.2,1.8
			c1.2,0.6,2.2,1.6,3,2.6c1.2,1.4,2,2.8,2.4,4.6c0.2,1,0.2,2.2,0.2,3.2s-0.4,2.2-0.8,3.2c-1.4,2.8-3.4,4.8-6.4,5.8
			c-1,0.4-2,0.6-3,0.8c-0.8,0.2-1.6,0.2-2.6,0.2c-5,0-9.8,0-14.7,0c-0.2,0-0.4,0-0.6,0c0,0.4,0,0.8,0,1.2c0,0.4,0,0.8,0,1.2
			s0,0.8,0,1.2c0,0.4,0,0.8,0,1.2c0,0.4,0,0.8,0,1.2s0,0.8,0,1.2c0,0.4,0,0.8,0,1.2c0,0.4,0,0.8,0,1.2s0,0.8,0,1.2
			c0,0.4,0,0.8,0,1.2c0,0.4,0,0.8,0,1.2s0,0.8,0,1.2c0,0.4,0,0.8,0,1.2c0,0.4,0,0.8,0,1.2s0,0.8,0,1.2C2.6,55.8,2.6,56.2,2.6,56.6z
			 M2.6,34.7c0.2,0,0.4,0,0.6,0c2.4,0,4.6,0,7,0c2.8,0,5.6,0,8.4,0c0.6,0,1.2,0,1.8-0.2c2.2-0.4,4.2-1.4,5.8-3
			c1.4-1.4,2.2-3.2,2.2-5.4c0-0.2,0-0.6,0-0.8c0-1-0.4-2-0.8-2.8c-0.6-1-1.2-2-2.2-2.6c-1.8-1.4-3.8-2.2-6-2.2c-5.4,0-10.6,0-15.9,0
			c-0.2,0-0.2,0-0.4,0C2.6,23.3,2.6,29.1,2.6,34.7z"/>
		<path class="st0" d="M104.9,17.7c-8,0-15.7,0-23.3,0c0-0.4,0-2,0-2.4l0,0l0,0c9.4,0,18.5,0,27.9,0c0,0.2,0,0.2-0.2,0.2
			c-0.8,1.2-1.6,2.4-2.4,3.6c-1.2,1.8-2.4,3.6-3.6,5.4c-1,1.6-2,3.2-3.2,4.8c-1.2,1.8-2.2,3.4-3.4,5.2c-1,1.6-2.2,3.2-3.2,4.8
			c-1.2,1.6-2.2,3.4-3.4,5c-1,1.6-2,3.2-3.2,4.8c-1,1.6-2.2,3.2-3.2,4.8c0,0,0,0.2-0.2,0.2c8.6,0,17.1,0,25.7,0c0,0.4,0,1.8,0,2.4
			l0,0l0,0c-10,0-19.9,0-29.9,0h-0.2c0-0.2,0.2-0.4,0.2-0.4c0.8-1.2,1.4-2.2,2.2-3.4c1.2-1.8,2.2-3.4,3.4-5.2c1-1.6,2-3.2,3.2-4.8
			c1.2-1.8,2.2-3.4,3.4-5.2c1-1.6,2.2-3.4,3.2-5c1-1.6,2.2-3.2,3.2-5c1.2-1.6,2.2-3.4,3.4-5c1-1.6,2.2-3.2,3.2-4.8
			C104.7,17.9,104.7,17.9,104.9,17.7z"/>
		<path class="st0" d="M52.2,54.2c3,0,5.8,0,8.6,0c2.8,0,5.8,0,8.6,0c2.8,0,5.6,0,8.6,0c0,0.4,0,2,0,2.4l0,0l0,0
			c-10,0-20.1,0-30.1,0c0,0,0,0-0.2,0c0,0,0-0.2,0.2-0.2c0.8-1.2,1.6-2.4,2.4-3.6c1.2-1.8,2.4-3.6,3.4-5.2c1-1.4,2-3,3-4.4
			c1.2-1.8,2.4-3.6,3.6-5.4c1-1.6,2-3.2,3.2-4.8c1.2-1.8,2.2-3.4,3.4-5.2c1-1.6,2-3.2,3.2-4.8s2.2-3.4,3.4-5l0.2-0.2l0,0l0,0l0,0
			c-7.8,0-15.3,0-23.1,0l0,0c-0.6-0.6-0.6-1.8-0.6-2.8c0.2-0.2,0.4,0,0.6,0c4.4,0,8.8,0,13.1,0c4.6,0,9.2,0,13.7,0
			c0.2,0,0.4,0,0.6,0c0,0.2,0,0.2-0.2,0.2c-0.4,0.6-0.8,1.4-1.2,2c-1.6,2.4-3,4.6-4.6,7c-1.2,1.6-2.2,3.4-3.4,5
			c-1,1.6-2.2,3.2-3.2,5c-1.2,1.6-2.2,3.4-3.4,5c-1,1.6-2.2,3.2-3.2,5c-1,1.6-2.2,3.2-3.2,4.8c-1,1.6-2.2,3.4-3.2,5
			C52.4,54,52.4,54,52.2,54.2z"/>
		<path class="st0" d="M129.4,15.1c0.6,0,1,0,1.6,0c6,13.7,12.1,27.7,18.1,41.4c-0.4,0-1.8,0-2.6,0c-5.4-12.3-10.8-24.7-16.1-36.8
			c-0.2,0-0.2,0.2-0.2,0.2c-0.6,1.6-1.4,3-2,4.6c-1,2.2-1.8,4.2-2.8,6.4c-1,2.2-1.8,4.2-2.8,6.4c-0.8,2-1.8,4-2.6,5.8
			c-1,2.2-2,4.4-3,6.6c-1,2-1.8,4.2-2.8,6.2c-0.2,0.2-0.2,0.4-0.4,0.8c-0.4,0-2,0.2-2.8,0C117.3,42.8,123.4,29.1,129.4,15.1z"/>
		<path class="st0" d="M207.7,56.6c-1,0-1.8,0-2.8,0c6-13.7,12.1-27.7,18.1-41.4c0.6,0,1,0,1.6,0c6,13.7,12.1,27.7,18.1,41.4
			c-0.4,0-2,0-2.6,0c-2.8-6.2-5.4-12.3-8.2-18.5c-2.8-6.2-5.4-12.3-8.2-18.5C218.4,31.9,213,44.2,207.7,56.6z"/>
		<path class="st1" d="M81,68.5c-0.2,0-0.4,0-0.6,0c-26.7,0-53.2,0-79.8,0c-0.2,0-0.4,0-0.6,0c0-0.6,0-1.4,0-2h0.2
			c0.2,0,0.2,0,0.4,0c26.5,0,53.2,0,79.6,0c0.2,0,0.4,0,0.6,0C81,67.3,81,67.9,81,68.5z"/>
		<path class="st2" d="M161.9,66.5c0.2,0,0.4,0,0.6,0c26.7,0,53.4,0,79.8,0c0.2,0,0.4,0,0.6,0c0.2,0.4,0,0.6,0,1s0,0.6,0,1
			c-0.2,0-0.2,0-0.4,0h-0.2c-26.5,0-53.2,0-79.6,0c-0.2,0-0.4,0-0.6,0C161.9,67.9,161.9,67.3,161.9,66.5z"/>
		<path class="st3" d="M161.9,66.5c0,0.6,0,1.4,0,2c-0.2,0-0.4,0-0.6,0c-26.7,0-53.2,0-79.8,0c-0.2,0-0.4,0-0.6,0c0-0.6,0-1.4,0-2
			c0.2,0,0.4,0,0.6,0c26.7,0,53.2,0,79.8,0C161.5,66.5,161.7,66.5,161.9,66.5z"/>
		<path class="st0" d="M39.4,15.1c0.4,0,2,0,2.4,0l0,0l0,0c0,13.7,0,27.5,0,41c0,0,0,0,0,0.2c-0.4,0-1.6,0.2-2.4,0v-0.2
			c0-0.2,0-0.2,0-0.4c0-13.3,0-26.9,0-40.2C39.4,15.5,39.4,15.3,39.4,15.1z"/>
		<path class="st0" d="M198.7,15.1C198.7,15.3,198.7,15.3,198.7,15.1c0,13.9,0,27.7,0,41.4c-0.4,0-1.6,0-2.4,0v-0.2
			c0-0.2,0-0.2,0-0.4c0-13.3,0-26.9,0-40.2c0-0.2,0-0.4,0-0.6C197.1,15.1,197.9,15.1,198.7,15.1z"/>
	</g>
	<g>
		<g>
			<path class="st0" d="M28.7,92.6h-1.6l-1.8-2.4c-0.2,0-0.2,0-0.4,0h-2v2.4h-1.6v-8.4h3.4c2.2,0,3.6,1.2,3.6,3
				c0,1.2-0.6,2.2-1.8,2.6L28.7,92.6z M24.9,85.6h-1.8V89h1.8c1.4,0,2-0.6,2-1.6C26.9,86.4,26.3,85.6,24.9,85.6z"/>
			<path class="st0" d="M34.2,92.6v-8.4h1.6v8.4H34.2z"/>
			<path class="st0" d="M41.2,91.8l0.6-1.2c0.6,0.6,1.8,1,2.8,1c1.4,0,1.8-0.4,1.8-1.2c0-1.8-5-0.6-5-3.8c0-1.4,1-2.6,3.4-2.6
				c1,0,2,0.2,2.8,0.8L47.2,86c-0.8-0.4-1.6-0.6-2.4-0.6c-1.4,0-1.8,0.6-1.8,1.2c0,1.8,5,0.6,5,3.8c0,1.4-1.2,2.6-3.4,2.6
				C43.2,92.8,41.8,92.4,41.2,91.8z"/>
			<path class="st0" d="M55,92.6v-7.2h-2.8V84h7.2v1.4h-2.8v7.2H55z"/>
			<path class="st0" d="M63.5,88.4c0-2.6,2-4.4,4.6-4.4c2.6,0,4.6,1.8,4.6,4.4s-2,4.4-4.6,4.4C65.5,92.8,63.5,91,63.5,88.4z
				 M71.1,88.4c0-1.8-1.2-3-3-3c-1.8,0-3,1.2-3,3c0,1.8,1.2,3,3,3C69.9,91.4,71.1,90.2,71.1,88.4z"/>
			<path class="st0" d="M85.4,92.6h-1.6L82,90.2c-0.2,0-0.2,0-0.4,0h-2v2.4h-1.6v-8.4h3.6c2.2,0,3.6,1.2,3.6,3
				c0,1.2-0.6,2.2-1.8,2.6L85.4,92.6z M81.6,85.6h-1.8V89h1.8c1.4,0,2-0.6,2-1.6C83.6,86.4,83,85.6,81.6,85.6z"/>
			<path class="st0" d="M97.2,92.6l-0.8-2h-4.2l-0.8,2h-1.8l3.8-8.4H95l3.8,8.4H97.2z M92.6,89.4h3.2l-1.6-3.6L92.6,89.4z"/>
			<path class="st0" d="M109.7,84.2h1.6v8.4h-1.2l-4.6-5.8v5.8h-1.6v-8.4h1.2l4.6,5.8V84.2z"/>
			<path class="st0" d="M119.1,92.6v-7.2h-2.8V84h7.2v1.4h-2.8v7.2H119.1z"/>
			<path class="st0" d="M130,91.4h4.8v1.4h-6.4v-8.4h6.2v1.4H130V88h4v1.2h-4V91.4z"/>
			<path class="st0" d="M154.7,91.8l-0.8,1l-1-1c-0.8,0.6-1.8,1-2.8,1c-1.8,0-3-1-3-2.2c0-1,0.6-1.8,2-2.6c-0.6-0.6-1-1.2-1-1.8
				c0-1.2,1-2,2.4-2c1.4,0,2.2,0.8,2.2,1.8c0,0.8-0.6,1.6-1.8,2.2l1.8,1.8c0.2-0.4,0.4-0.8,0.4-1.4l1.2,0.4c-0.2,0.8-0.4,1.4-0.8,2
				L154.7,91.8z M151.9,90.8l-2.2-2.2c-1,0.6-1.4,1-1.4,1.6c0,0.8,0.6,1.2,1.8,1.2C150.9,91.6,151.5,91.4,151.9,90.8z M149.3,86
				c0,0.4,0.2,0.6,0.8,1.2c1-0.6,1.2-0.8,1.2-1.4c0-0.4-0.4-0.8-1-0.8C149.7,85.2,149.3,85.6,149.3,86z"/>
			<path class="st0" d="M166.7,88.4c0-2.6,2-4.4,4.6-4.4c1.4,0,2.6,0.4,3.4,1.4l-1,1c-0.6-0.6-1.4-1-2.2-1c-1.8,0-3,1.2-3,3
				c0,1.8,1.2,3,3,3c0.8,0,1.6-0.4,2.2-1l1,1c-0.8,1-2,1.4-3.4,1.4C168.4,92.8,166.7,91,166.7,88.4z"/>
			<path class="st0" d="M186,92.6l-0.8-2H181l-0.8,2h-1.6l3.8-8.4h1.6l3.8,8.4H186z M181.4,89.4h3.2l-1.6-3.6L181.4,89.4z"/>
			<path class="st0" d="M198.7,85.4h-4.6V88h4v1.4h-4v3.2h-1.6v-8.4h6.2C198.7,84.2,198.7,85.4,198.7,85.4z"/>
			<path class="st0" d="M210.3,85.4h-4.6V88h4v1.4h-4v3.2h-1.6v-8.4h6.2C210.3,84.2,210.3,85.4,210.3,85.4z"/>
			<path class="st0" d="M217.2,91.4h4.8v1.4h-6.4v-8.4h6.2v1.4h-4.6V88h4v1.2h-4V91.4z M218.6,82.6l-1,0.8h-1.2l1.6-1.6h1.4l1.6,1.6
				h-1.2L218.6,82.6z"/>
		</g>
	</g>
</g>
</svg>
