<?xml version="1.0" encoding="utf-8"?>
<!-- Generator: Adobe Illustrator 28.3.0, SVG Export Plug-In . SVG Version: 6.00 Build 0)  -->
<svg version="1.1" id="Isolation_Mode" xmlns="http://www.w3.org/2000/svg" xmlns:xlink="http://www.w3.org/1999/xlink" x="0px"
	 y="0px" viewBox="0 0 122 54" style="enable-background:new 0 0 122 54;" xml:space="preserve">
<style type="text/css">
	.st0{fill:#040404;}
	.st1{fill:#060606;}
	.st2{fill:#469149;}
	.st3{fill:#E02A26;}
	.st4{fill:#E0E1E0;}
	.st5{fill:#070707;}
	.st6{fill:#010101;}
	.st7{fill:#090909;}
</style>
<g>
	<g>
		<path class="st0" d="M93.8,28.3c-0.4,0-0.9,0-1.3,0c0,0,0-0.1-0.1-0.1c-0.4-1.3-0.8-2.6-1.3-3.9c-0.3-0.8-0.7-1.7-1.1-2.5
			c-0.4-0.8-0.9-1.5-1.6-2.2c-0.3-0.3-0.6-0.6-1-0.9c-0.1-0.1-0.2-0.1-0.2-0.2c-2.6,0-5.2,0-7.7,0c0,0.2,0,0.4,0,0.6
			c0,0.2,0,0.4,0,0.6c0,0.2,0,0.4,0,0.6c0,0.2,0,0.4,0,0.6c0,0.2,0,0.4,0,0.6c0,0.2,0,0.4,0,0.6c0,0.2,0,0.4,0,0.6
			c0,0.2,0,0.4,0,0.6c0,0.2,0,0.4,0,0.6c0,0.2,0,0.4,0,0.6c0,0.2,0,0.4,0,0.6c0,0.2,0,0.4,0,0.6c0,0.2,0,0.4,0,0.6
			c0,0.2,0,0.4,0,0.6c0,0.2,0,0.4,0,0.6c0,0.2,0,0.4,0,0.6c0,0.2,0,0.4,0,0.6c-0.4,0-0.8,0-1.2,0c0-0.1,0-0.1,0-0.2
			c0-4.6,0-9.2,0-13.8c0.1-1.1,0-2.2,0-3.3c0-1.1,0-2.2,0-3.3c0-0.1,0-0.1,0-0.2c0.1,0,0.2,0,0.3,0c1.3,0,2.6,0,3.9,0
			c0.9,0,1.7,0,2.6,0c0.9,0,1.7,0,2.6,0c0.6,0,1.2,0.1,1.8,0.3C90.2,8,91,8.5,91.7,9.1c0.7,0.6,1.3,1.4,1.6,2.3
			c0.2,0.5,0.3,1,0.3,1.5c0,0.5,0,1.1-0.2,1.6c-0.2,0.6-0.4,1.1-0.8,1.6c-0.2,0.3-0.4,0.5-0.6,0.7c-0.4,0.4-0.9,0.7-1.4,1
			c-0.5,0.3-1,0.4-1.5,0.6c0,0,0,0-0.1,0c0,0,0,0,0,0.1c0.6,0.5,1.1,1.2,1.6,1.9c0.5,0.9,1,1.9,1.4,2.9c0.4,1,0.8,2.1,1.1,3.2
			c0.2,0.6,0.4,1.2,0.6,1.8C93.7,28.2,93.7,28.2,93.8,28.3z M79.5,17.3c0.1,0,0.2,0,0.3,0c1.2,0,2.5,0,3.7,0c1.3,0,2.7,0,4,0
			c0.3,0,0.6,0,0.9-0.1c1.2-0.2,2.2-0.7,3-1.6c0.2-0.3,0.5-0.6,0.6-0.9c0.2-0.5,0.4-1.1,0.4-1.7c0-0.1,0-0.3,0-0.4
			c0-0.5-0.2-1-0.4-1.4c-0.3-0.5-0.6-0.9-1-1.2c-0.9-0.8-2-1.2-3.1-1.2c-2.7,0-5.3,0-8,0c-0.1,0-0.1,0-0.2,0
			C79.5,11.6,79.5,14.5,79.5,17.3z"/>
		<path class="st1" d="M1.3,28.3c-0.2,0-1,0-1.2,0c0-0.1,0-0.1,0-0.2c0-4.5,0-9,0-13.4c0.1-1.2,0-2.3,0-3.5c0-1.1,0-2.3,0-3.4
			c0-0.1,0-0.1,0-0.2c0.1,0,0.2,0,0.3,0c1.3,0,2.6,0,3.9,0c0.9,0,1.7,0,2.6,0c0.9,0,1.7,0,2.6,0c1.1,0,2.2,0.3,3.1,0.9
			c0.6,0.3,1.1,0.8,1.5,1.3c0.6,0.7,1,1.4,1.2,2.3c0.1,0.5,0.1,1.1,0.1,1.6c0,0.5-0.2,1.1-0.4,1.6c-0.7,1.4-1.7,2.4-3.2,2.9
			c-0.5,0.2-1,0.3-1.5,0.4c-0.4,0.1-0.8,0.1-1.3,0.1c-2.5,0-4.9,0-7.4,0c-0.1,0-0.2,0-0.3,0c0,0.2,0,0.4,0,0.6c0,0.2,0,0.4,0,0.6
			c0,0.2,0,0.4,0,0.6c0,0.2,0,0.4,0,0.6c0,0.2,0,0.4,0,0.6s0,0.4,0,0.6c0,0.2,0,0.4,0,0.6c0,0.2,0,0.4,0,0.6c0,0.2,0,0.4,0,0.6
			c0,0.2,0,0.4,0,0.6c0,0.2,0,0.4,0,0.6c0,0.2,0,0.4,0,0.6c0,0.2,0,0.4,0,0.6c0,0.2,0,0.4,0,0.6c0,0.2,0,0.4,0,0.6
			C1.3,27.9,1.3,28.1,1.3,28.3z M1.3,17.3c0.1,0,0.2,0,0.3,0c1.2,0,2.3,0,3.5,0c1.4,0,2.8,0,4.2,0c0.3,0,0.6,0,0.9-0.1
			c1.1-0.2,2.1-0.7,2.9-1.5c0.7-0.7,1.1-1.6,1.1-2.7c0-0.1,0-0.3,0-0.4c0-0.5-0.2-1-0.4-1.4c-0.3-0.5-0.6-1-1.1-1.3
			c-0.9-0.7-1.9-1.1-3-1.1c-2.7,0-5.3,0-8,0c-0.1,0-0.1,0-0.2,0C1.3,11.6,1.3,14.5,1.3,17.3z"/>
		<path class="st1" d="M52.7,8.8c-4,0-7.9,0-11.7,0c0-0.2,0-1,0-1.2c0,0,0,0,0,0c0,0,0,0,0,0c4.7,0,9.3,0,14,0c0,0.1,0,0.1-0.1,0.1
			c-0.4,0.6-0.8,1.2-1.2,1.8c-0.6,0.9-1.2,1.8-1.8,2.7c-0.5,0.8-1,1.6-1.6,2.4c-0.6,0.9-1.1,1.7-1.7,2.6c-0.5,0.8-1.1,1.6-1.6,2.4
			c-0.6,0.8-1.1,1.7-1.7,2.5c-0.5,0.8-1,1.6-1.6,2.4c-0.5,0.8-1.1,1.6-1.6,2.4c0,0,0,0.1-0.1,0.1c4.3,0,8.6,0,12.9,0
			c0,0.2,0,0.9,0,1.2c0,0,0,0,0,0c0,0,0,0,0,0c-5,0-10,0-15,0c0,0-0.1,0-0.1,0c0-0.1,0.1-0.2,0.1-0.2c0.4-0.6,0.7-1.1,1.1-1.7
			c0.6-0.9,1.1-1.7,1.7-2.6c0.5-0.8,1-1.6,1.6-2.4c0.6-0.9,1.1-1.7,1.7-2.6c0.5-0.8,1.1-1.7,1.6-2.5c0.5-0.8,1.1-1.6,1.6-2.5
			c0.6-0.8,1.1-1.7,1.7-2.5c0.5-0.8,1.1-1.6,1.6-2.4C52.6,8.9,52.6,8.9,52.7,8.8z"/>
		<path class="st1" d="M26.2,27.1c1.5,0,2.9,0,4.3,0c1.4,0,2.9,0,4.3,0c1.4,0,2.8,0,4.3,0c0,0.2,0,1,0,1.2c0,0,0,0,0,0c0,0,0,0,0,0
			c-5,0-10.1,0-15.1,0c0,0,0,0-0.1,0c0,0,0-0.1,0.1-0.1c0.4-0.6,0.8-1.2,1.2-1.8c0.6-0.9,1.2-1.8,1.7-2.6c0.5-0.7,1-1.5,1.5-2.2
			c0.6-0.9,1.2-1.8,1.8-2.7c0.5-0.8,1-1.6,1.6-2.4c0.6-0.9,1.1-1.7,1.7-2.6c0.5-0.8,1-1.6,1.6-2.4c0.6-0.8,1.1-1.7,1.7-2.5
			c0,0,0.1-0.1,0.1-0.1c0,0,0,0,0,0c0,0,0,0,0,0c0,0,0,0,0,0c-3.9,0-7.7,0-11.6,0c0,0,0,0,0,0C25,8.6,25,8,25,7.5
			c0.1-0.1,0.2,0,0.3,0c2.2,0,4.4,0,6.6,0c2.3,0,4.6,0,6.9,0c0.1,0,0.2,0,0.3,0c0,0.1,0,0.1-0.1,0.1c-0.2,0.3-0.4,0.7-0.6,1
			c-0.8,1.2-1.5,2.3-2.3,3.5c-0.6,0.8-1.1,1.7-1.7,2.5c-0.5,0.8-1.1,1.6-1.6,2.5c-0.6,0.8-1.1,1.7-1.7,2.5c-0.5,0.8-1.1,1.6-1.6,2.5
			c-0.5,0.8-1.1,1.6-1.6,2.4c-0.5,0.8-1.1,1.7-1.6,2.5C26.3,27,26.3,27,26.2,27.1z"/>
		<path class="st0" d="M65,7.5c0.3,0,0.5,0,0.8,0c3,6.9,6.1,13.9,9.1,20.8c-0.2,0-0.9,0-1.3,0c-2.7-6.2-5.4-12.4-8.1-18.5
			c-0.1,0-0.1,0.1-0.1,0.1c-0.3,0.8-0.7,1.5-1,2.3c-0.5,1.1-0.9,2.1-1.4,3.2c-0.5,1.1-0.9,2.1-1.4,3.2c-0.4,1-0.9,2-1.3,2.9
			c-0.5,1.1-1,2.2-1.5,3.3c-0.5,1-0.9,2.1-1.4,3.1c-0.1,0.1-0.1,0.2-0.2,0.4c-0.2,0-1,0.1-1.4,0C58.9,21.4,62,14.5,65,7.5z"/>
		<path class="st0" d="M104.3,28.3c-0.5,0-0.9,0-1.4,0c3-6.9,6.1-13.9,9.1-20.8c0.3,0,0.5,0,0.8,0c3,6.9,6.1,13.9,9.1,20.8
			c-0.2,0-1,0-1.3,0c-1.4-3.1-2.7-6.2-4.1-9.3c-1.4-3.1-2.7-6.2-4.1-9.3C109.7,15.9,107,22.1,104.3,28.3z"/>
		<path class="st2" d="M40.7,34.3c-0.1,0-0.2,0-0.3,0c-13.4,0-26.7,0-40.1,0c-0.1,0-0.2,0-0.3,0c0-0.3,0-0.7,0-1c0,0,0.1,0,0.1,0
			c0.1,0,0.1,0,0.2,0c13.3,0,26.7,0,40,0c0.1,0,0.2,0,0.3,0C40.7,33.7,40.7,34,40.7,34.3z"/>
		<path class="st3" d="M81.3,33.3c0.1,0,0.2,0,0.3,0c13.4,0,26.8,0,40.1,0c0.1,0,0.2,0,0.3,0c0.1,0.2,0,0.3,0,0.5c0,0.2,0,0.3,0,0.5
			c-0.1,0-0.1,0-0.2,0c0,0-0.1,0-0.1,0c-13.3,0-26.7,0-40,0c-0.1,0-0.2,0-0.3,0C81.3,34,81.3,33.7,81.3,33.3z"/>
		<path class="st4" d="M81.3,33.3c0,0.3,0,0.7,0,1c-0.1,0-0.2,0-0.3,0c-13.4,0-26.7,0-40.1,0c-0.1,0-0.2,0-0.3,0c0-0.3,0-0.7,0-1
			c0.1,0,0.2,0,0.3,0c13.4,0,26.7,0,40.1,0C81.1,33.3,81.2,33.3,81.3,33.3z"/>
		<path class="st5" d="M19.8,7.5c0.2,0,1,0,1.2,0c0,0,0,0,0,0c0,0,0,0,0,0c0,6.9,0,13.8,0,20.6c0,0,0,0,0,0.1c-0.2,0-0.8,0.1-1.2,0
			c0,0,0-0.1,0-0.1c0-0.1,0-0.1,0-0.2c0-6.7,0-13.5,0-20.2C19.8,7.7,19.8,7.6,19.8,7.5z"/>
		<path class="st6" d="M99.8,7.5C99.8,7.6,99.8,7.6,99.8,7.5c0,7,0,13.9,0,20.8c-0.2,0-0.8,0-1.2,0c0,0,0-0.1,0-0.1
			c0-0.1,0-0.1,0-0.2c0-6.7,0-13.5,0-20.2c0-0.1,0-0.2,0-0.3C99,7.5,99.4,7.5,99.8,7.5z"/>
	</g>
	<g>
		<g>
			<path class="st7" d="M14.4,46.4h-0.8l-0.9-1.2c-0.1,0-0.1,0-0.2,0h-1v1.2h-0.8v-4.2h1.7c1.1,0,1.8,0.6,1.8,1.5
				c0,0.6-0.3,1.1-0.9,1.3L14.4,46.4z M12.5,42.9h-0.9v1.7h0.9c0.7,0,1-0.3,1-0.8S13.2,42.9,12.5,42.9z"/>
			<path class="st7" d="M17.2,46.4v-4.2h0.8v4.2H17.2z"/>
			<path class="st7" d="M20.7,46l0.3-0.6c0.3,0.3,0.9,0.5,1.4,0.5c0.7,0,0.9-0.2,0.9-0.6c0-0.9-2.5-0.3-2.5-1.9
				c0-0.7,0.5-1.3,1.7-1.3c0.5,0,1,0.1,1.4,0.4l-0.2,0.6c-0.4-0.2-0.8-0.3-1.2-0.3c-0.7,0-0.9,0.3-0.9,0.6c0,0.9,2.5,0.3,2.5,1.9
				c0,0.7-0.6,1.3-1.7,1.3C21.7,46.5,21,46.3,20.7,46z"/>
			<path class="st7" d="M27.6,46.4v-3.6h-1.4v-0.7h3.6v0.7h-1.4v3.6H27.6z"/>
			<path class="st7" d="M31.9,44.3c0-1.3,1-2.2,2.3-2.2c1.3,0,2.3,0.9,2.3,2.2c0,1.3-1,2.2-2.3,2.2C32.9,46.5,31.9,45.6,31.9,44.3z
				 M35.7,44.3c0-0.9-0.6-1.5-1.5-1.5s-1.5,0.6-1.5,1.5c0,0.9,0.6,1.5,1.5,1.5S35.7,45.2,35.7,44.3z"/>
			<path class="st7" d="M42.9,46.4h-0.8l-0.9-1.2c-0.1,0-0.1,0-0.2,0h-1v1.2h-0.8v-4.2H41c1.1,0,1.8,0.6,1.8,1.5
				c0,0.6-0.3,1.1-0.9,1.3L42.9,46.4z M41,42.9h-0.9v1.7H41c0.7,0,1-0.3,1-0.8S41.7,42.9,41,42.9z"/>
			<path class="st7" d="M48.8,46.4l-0.4-1h-2.1l-0.4,1H45l1.9-4.2h0.8l1.9,4.2H48.8z M46.5,44.8h1.6L47.3,43L46.5,44.8z"/>
			<path class="st7" d="M55.1,42.2h0.8v4.2h-0.6l-2.3-2.9v2.9h-0.8v-4.2h0.6l2.3,2.9V42.2z"/>
			<path class="st7" d="M59.8,46.4v-3.6h-1.4v-0.7H62v0.7h-1.4v3.6H59.8z"/>
			<path class="st7" d="M65.3,45.8h2.4v0.7h-3.2v-4.2h3.1v0.7h-2.3v1.1h2v0.6h-2V45.8z"/>
			<path class="st7" d="M77.7,46l-0.4,0.5L76.8,46c-0.4,0.3-0.9,0.5-1.4,0.5c-0.9,0-1.5-0.5-1.5-1.1c0-0.5,0.3-0.9,1-1.3
				c-0.3-0.3-0.5-0.6-0.5-0.9c0-0.6,0.5-1,1.2-1c0.7,0,1.1,0.4,1.1,0.9c0,0.4-0.3,0.8-0.9,1.1l0.9,0.9c0.1-0.2,0.2-0.4,0.2-0.7
				l0.6,0.2c-0.1,0.4-0.2,0.7-0.4,1L77.7,46z M76.3,45.5l-1.1-1.1c-0.5,0.3-0.7,0.5-0.7,0.8c0,0.4,0.3,0.6,0.9,0.6
				C75.8,45.9,76.1,45.8,76.3,45.5z M75,43.1c0,0.2,0.1,0.3,0.4,0.6c0.5-0.3,0.6-0.4,0.6-0.7c0-0.2-0.2-0.4-0.5-0.4
				C75.2,42.7,75,42.9,75,43.1z"/>
			<path class="st7" d="M83.7,44.3c0-1.3,1-2.2,2.3-2.2c0.7,0,1.3,0.2,1.7,0.7l-0.5,0.5c-0.3-0.3-0.7-0.5-1.1-0.5
				c-0.9,0-1.5,0.6-1.5,1.5s0.6,1.5,1.5,1.5c0.4,0,0.8-0.2,1.1-0.5l0.5,0.5c-0.4,0.5-1,0.7-1.7,0.7C84.6,46.5,83.7,45.6,83.7,44.3z"
				/>
			<path class="st7" d="M93.4,46.4l-0.4-1h-2.1l-0.4,1h-0.8l1.9-4.2h0.8l1.9,4.2H93.4z M91.1,44.8h1.6L91.9,43L91.1,44.8z"/>
			<path class="st7" d="M99.8,42.8h-2.3v1.3h2v0.7h-2v1.6h-0.8v-4.2h3.1V42.8z"/>
			<path class="st7" d="M105.6,42.8h-2.3v1.3h2v0.7h-2v1.6h-0.8v-4.2h3.1V42.8z"/>
			<path class="st7" d="M109.1,45.8h2.4v0.7h-3.2v-4.2h3.1v0.7h-2.3v1.1h2v0.6h-2V45.8z M109.8,41.4l-0.5,0.4h-0.6l0.8-0.8h0.7
				l0.8,0.8h-0.6L109.8,41.4z"/>
		</g>
	</g>
</g>
</svg>
