<?xml version="1.0" encoding="utf-8"?>
<!-- Generator: Adobe Illustrator 28.3.0, SVG Export Plug-In . SVG Version: 6.00 Build 0)  -->
<svg version="1.1" id="Layer_1" xmlns="http://www.w3.org/2000/svg" xmlns:xlink="http://www.w3.org/1999/xlink" x="0px" y="0px"
	 viewBox="0 0 512 512" style="enable-background:new 0 0 512 512;" xml:space="preserve">
<style type="text/css">
	.st0{fill:#BD3723;}
</style>
<g id="_x38_01_x2C__Burger_x2C__Hotel_x2C__Service_00000161593751603572758570000008486111778523594172_">
	<g>
		<path class="st0" d="M32.2,217.5h448.5c5.6,0,10.1-4.7,9.7-10.4c-0.3-101.9-83.3-184.6-185.2-184.6h-97.5
			c-102.1,0-185.2,83.1-185.2,185.2C22.5,213.1,26.8,217.5,32.2,217.5z M207.7,42h97.5c88.1,0,160.4,69.1,165.5,156H42.3
			C47.3,111.1,119.6,42,207.7,42L207.7,42z"/>
		<path class="st0" d="M168.7,81c0-5.4-4.4-9.8-9.8-9.8c-17.5,0-34.8,8.4-48.6,23.6c-12.3,13.6-19.7,30.3-19.7,44.7
			c0,5.4,4.4,9.8,9.8,9.8s9.8-4.4,9.8-9.8c0-18.8,22.3-48.8,48.7-48.8C164.4,90.8,168.7,86.4,168.7,81z"/>
		<path class="st0" d="M480.7,334.5H32.2c-5.4,0-9.7,4.4-9.7,9.8v22c0,43.9,22.9,82.6,57.5,104.7H32.2c-5.4,0-9.7,4.4-9.7,9.8
			s4.4,9.8,9.7,9.8h448.5c5.4,0,9.8-4.4,9.8-9.8s-4.4-9.8-9.8-9.8H433c34.5-22.1,57.5-60.8,57.5-104.7v-22
			C490.5,338.9,486.1,334.5,480.7,334.5z M388.1,393c0,16.1-13.1,29.2-29.2,29.2c-10.3,0-19.7-5.3-25.1-14.2
			c-3.1-5.1-10-6.3-14.6-2.4c-6.1,5.1-14.2,7.7-22.6,6.6c-3.9-0.5-7.8,1.4-9.7,4.9c-11,19.5-39,19.9-50.5,0.7
			c-3.1-5.1-10-6.3-14.6-2.4c-12.4,10.4-31.1,8.8-41.5-4c-3-3.6-8.1-4.6-12.2-2.4c-4.3,2.3-9,3.5-13.9,3.5
			c-16.1,0-29.2-13.1-29.2-29.2S138,354,154.1,354h204.8C373.9,354,388.1,376,388.1,393L388.1,393z M471,366.3
			C471,424,424,471,366.3,471H146.7C88.9,471,42,424,42,366.3V354h73.2c-6.1,8.2-9.8,18.3-9.8,29.2c0,33.4,33.1,57.1,64.9,46
			c15.5,13.9,37.7,16.3,55.5,6.8c21,22.3,56.5,20,74.6-4c1.3-0.2,11.2,0.5,22.9-5.7c9.1,9.7,22.1,15.5,35.6,15.5
			c26.9,0,48.8-21.9,48.8-48.8c0-12.4-4.8-27.1-13.9-39H471V366.3z"/>
		<path class="st0" d="M480.7,237H32.2c-5.4,0-9.7,4.4-9.7,9.8s4.4,9.8,9.7,9.8h448.5c5.4,0,9.8-4.4,9.8-9.8S486.1,237,480.7,237z"
			/>
		<path class="st0" d="M480.7,276c-21.1,0-32.1,5.8-41.9,10.9c-8.9,4.6-16.6,8.6-32.9,8.6c-16.3,0-24-4-32.9-8.6
			c-9.8-5.1-20.8-10.9-41.9-10.9c-21.1,0-32.1,5.8-41.9,10.9c-8.9,4.6-16.6,8.6-32.9,8.6c-16.3,0-24-4-32.9-8.6
			c-9.8-5.1-20.8-10.9-41.9-10.9c-21.1,0-32.1,5.8-41.9,10.9c-8.9,4.6-16.6,8.6-32.9,8.6s-24-4-32.9-8.6
			c-9.8-5.1-20.8-10.9-41.9-10.9c-5.4,0-9.8,4.4-9.8,9.8s4.4,9.8,9.8,9.8c16.3,0,24,4,32.9,8.6c9.8,5.1,20.8,10.9,41.9,10.9
			s32.1-5.8,41.9-10.9c8.9-4.6,16.6-8.6,32.9-8.6c16.3,0,24,4,32.9,8.6c9.8,5.1,20.8,10.9,41.9,10.9s32.1-5.8,41.9-10.9
			c8.9-4.6,16.6-8.6,32.9-8.6c16.3,0,24,4,32.9,8.6c9.8,5.1,20.8,10.9,41.9,10.9s32.1-5.8,41.9-10.9c8.9-4.6,16.6-8.6,32.9-8.6
			c5.4,0,9.8-4.4,9.8-9.8S486.1,276,480.7,276L480.7,276z"/>
		<path class="st0" d="M305.2,61.5c-16.1,0-29.2,13.1-29.2,29.2s13.1,29.2,29.2,29.2s29.2-13.1,29.2-29.2S321.3,61.5,305.2,61.5z
			 M305.2,100.5c-5.4,0-9.8-4.4-9.8-9.8s4.4-9.8,9.8-9.8s9.8,4.4,9.8,9.8S310.6,100.5,305.2,100.5z"/>
		<path class="st0" d="M393,110.2c-16.1,0-29.2,13.1-29.2,29.2s13.1,29.2,29.2,29.2s29.2-13.1,29.2-29.2S409.1,110.2,393,110.2z
			 M393,149.2c-5.4,0-9.8-4.4-9.8-9.8s4.4-9.8,9.8-9.8s9.8,4.4,9.8,9.8S398.3,149.2,393,149.2z"/>
		<path class="st0" d="M168.7,110.2c-16.1,0-29.2,13.1-29.2,29.2s13.1,29.2,29.2,29.2s29.2-13.1,29.2-29.2S184.8,110.2,168.7,110.2z
			 M168.7,149.2c-5.4,0-9.8-4.4-9.8-9.8s4.4-9.8,9.8-9.8c5.4,0,9.8,4.4,9.8,9.8S174.1,149.2,168.7,149.2z"/>
		<path class="st0" d="M246.7,120c-16.1,0-29.2,13.1-29.2,29.2s13.1,29.2,29.2,29.2s29.2-13.1,29.2-29.2S262.8,120,246.7,120z
			 M246.7,159c-5.4,0-9.8-4.4-9.8-9.8s4.4-9.8,9.8-9.8c5.4,0,9.8,4.4,9.8,9.8S252.1,159,246.7,159z"/>
		<path class="st0" d="M207.7,393h97.5c5.4,0,9.8-4.4,9.8-9.8s-4.4-9.8-9.8-9.8h-97.5c-5.4,0-9.8,4.4-9.8,9.8S202.3,393,207.7,393z"
			/>
	</g>
</g>
</svg>
