<?xml version="1.0" encoding="utf-8"?>
<!-- Generator: Adobe Illustrator 28.3.0, SVG Export Plug-In . SVG Version: 6.00 Build 0)  -->
<svg version="1.1" id="Layer_1" xmlns="http://www.w3.org/2000/svg" xmlns:xlink="http://www.w3.org/1999/xlink" x="0px" y="0px"
	 viewBox="0 0 512 512" style="enable-background:new 0 0 512 512;" xml:space="preserve">
<style type="text/css">
	.st0{fill:#BD3723;}
</style>
<g transform="translate(0.000000,512.000000) scale(0.100000,-0.100000)">
	<path class="st0" d="M1393,4609c-56-17-68-53-67-209c1-149,17-236,62-354c37-95,110-204,173-259l50-44l-58-38
		c-116-77-247-218-339-367c-43-71-46-73-129-109c-341-147-565-419-665-806l-11-43H269c-163,0-194-10-240-73c-39-54-38-98,6-309
		c43-202,63-268,122-407c94-221,205-383,383-562c105-105,163-154,259-218c209-139,415-226,660-279l126-27h975h975l126,27
		c212,46,419,126,579,225c364,225,640,568,773,963c42,124,107,426,107,497c0,39-6,59-29,90c-48,66-74,73-270,73h-171l-55,68
		c-73,87-155,208-240,352c-100,169-185,287-256,357c-78,76-120,106-213,148c-130,59-177,67-440,72l-240,5l-150,147
		c-85,83-178,164-213,186c-35,21-63,41-63,44c0,4,16,23,36,42c52,50,119,155,154,241c47,118,63,207,64,358c1,215-13,226-259,217
		c-112-4-158-10-230-32c-116-34-231-96-306-163l-59-54l-59,54c-74,67-190,129-306,163c-76,23-113,28-240,31
		C1492,4618,1411,4615,1393,4609z M1738,4420c167-46,317-156,342-250c43-161-69-310-235-310c-73,0-126,23-177,76
		c-92,97-156,255-165,412l-6,92h84C1635,4440,1692,4433,1738,4420z M2857,4348c-12-204-120-412-242-469c-53-24-147-25-200,0
		c-52,24-121,99-134,147c-28,101-8,171,72,249c108,106,254,163,421,164l89,1L2857,4348z M2384,3685c43-7,81-16,84-20
		c3-3-21-33-54-66l-59-61l-89,5c-239,15-464-55-605-188c-77-73-151-174-204-281c-19-38-41-75-49-80c-7-6-62-30-123-53
		c-179-70-293-148-372-254c-50-67-114-196-132-264l-12-43h-88h-89l9,41c19,83,71,198,128,285c111,167,277,303,458,374
		c50,20,98,42,106,49c8,6,36,49,61,94c87,154,241,312,363,372C1910,3689,2166,3724,2384,3685z M2800,3525l21-22l-55-36
		c-59-39-108-84-174-162c-84-99-86-99-326-106c-182-5-218-9-266-27c-99-39-155-101-250-277c-52-97-100-158-149-190
		c-20-13-85-43-145-65c-178-66-255-120-302-212l-24-48h-85c-62,0-85,3-85,13c0,31,72,157,119,209c69,76,145,124,266,170
		c147,56,190,77,204,100c7,12,38,66,68,122c82,151,174,256,264,301c99,51,191,68,344,67c212-2,198-8,337,124l120,114l49-26
		C2757,3559,2788,3537,2800,3525z M3001,3324c18-19,64-55,100-80l67-44h223c258,0,325-11,438-66c127-63,221-172,386-449
		c46-77,109-176,139-220l56-80l-92-3c-50-1-97-1-104,2s-63,89-125,193c-208,349-258,401-424,442c-88,22-187,29-290,19
		c-131-12-253,3-315,39c-56,32-152,109-204,162c-32,33-37,43-27,55c14,17,108,66,126,66C2961,3360,2982,3344,3001,3324z M2765,3079
		c76-77,220-174,288-194c87-25,191-34,350-28c214,8,260-4,342-90c38-39,94-120,153-218c50-86,92-159,92-162c0-4-42-7-93-7h-92
		l-60,101c-112,189-155,211-430,215c-132,2-212,7-260,19c-121,28-271,122-409,258c-74,72-79,80-62,90c10,7,37,26,60,44
		c23,17,46,32,51,32C2701,3140,2732,3113,2765,3079z M2342,3004c17-9,90-73,162-143c173-168,315-261,471-311c60-19,101-24,281-29
		c207-6,212-7,248-32c37-26,86-85,86-102c0-5-123-7-302-4c-335,5-405,15-515,68c-103,49-233,152-428,338c-44,42-115,107-158,145
		c-42,38-77,73-77,78c0,4,45,8,100,8C2283,3020,2320,3016,2342,3004z M2040,2820c30-25,104-92,165-149c60-57,158-145,218-194
		c59-49,107-91,107-93s-55-4-122-4h-123l-180,166c-99,92-190,173-202,181c-13,9-23,20-23,26c0,5,16,39,36,74
		C1956,2899,1944,2900,2040,2820z M1888,2500c61-54,113-104,117-110c4-7-100-10-326-10c-325,0-332,0-315,19c19,21,92,54,207,95
		c42,15,102,45,135,66c32,22,62,40,65,40S1827,2555,1888,2500z M4940,2190c0-36-68-324-96-410c-112-336-338-631-638-832
		c-166-111-339-184-551-235l-120-28h-975h-975l-120,28c-212,51-385,124-551,235c-301,201-526,495-638,832c-28,86-96,374-96,410
		c0,6,872,10,2380,10S4940,2196,4940,2190z"/>
	<path class="st0" d="M425,2015c-32-31-32-63,1-167c73-234,234-480,419-641c250-217,545-339,876-363c99-7,129,0,156,35
		c19,24,15,75-7,103c-17,23-30,26-147,37c-343,31-613,158-840,394c-135,140-224,290-288,480c-19,56-44,112-56,125
		C510,2049,457,2048,425,2015z"/>
</g>
</svg>
