<?xml version="1.0" encoding="utf-8"?>
<!-- Generator: Adobe Illustrator 28.3.0, SVG Export Plug-In . SVG Version: 6.00 Build 0)  -->
<svg version="1.1" id="Layer_1" xmlns="http://www.w3.org/2000/svg" xmlns:xlink="http://www.w3.org/1999/xlink" x="0px" y="0px"
	 viewBox="0 0 512 512" style="enable-background:new 0 0 512 512;" xml:space="preserve">
<style type="text/css">
	.st0{fill:#BD3723;}
</style>
<g>
	<path class="st0" d="M207.3,31.5c-19.4,0-35.2,15.8-35.2,35.2c0,11.3,5.4,21.2,13.7,27.6L32.1,471.8c-1.1,2.6-0.5,5.6,1.5,7.6
		c1.3,1.3,3.1,2.1,5,2.1c0.9,0,1.8-0.2,2.7-0.5l138-56.2v7.5c0,11.6,9.5,21.1,21.1,21.1c11.6,0,21.1-9.5,21.1-21.1v-24.7l197.4-80.4
		c6.4,8.3,16.4,13.7,27.6,13.7c19.4,0,35.2-15.8,35.2-35.2C481.5,154.5,358.5,31.5,207.3,31.5z M382.4,326.8
		c-10-17.2-28.5-28.1-48.5-28.1c-24.7,0-46.9,16.5-53.9,40.2l13.5,4c5.3-17.7,21.9-30.1,40.4-30.1c14.4,0,27.7,7.5,35.4,19.4
		l-147.9,60.3v-18.8l45-19.3l-5.5-12.9l-49.2,21.1c-2.6,1.1-4.3,3.6-4.3,6.5v63.3c0,3.9-3.1,7-7,7c-3.9,0-7-3.2-7-7v-49.2
		c0-2.4-1.2-4.6-3.2-5.9c-2-1.3-4.5-1.5-6.6-0.6l-49.2,21.1l5.5,12.9l39.4-16.9v15.9L51.4,461.7l47.4-116.5
		c5.5,1.8,11.2,2.7,17.1,2.7c31,0,56.3-25.2,56.3-56.2c0-11.6-3.5-22.7-10.1-32.1l-11.5,8.1c5,7.1,7.6,15.4,7.6,24.1
		c0,23.3-18.9,42.2-42.2,42.2c-4,0-8-0.6-11.8-1.7l94.3-231.6c2.8,0.7,5.8,1.3,8.8,1.3c112.4,0,203.9,91.5,203.9,203.9
		c0,3.1,0.5,6,1.3,8.8L382.4,326.8z M446.4,326.8c-11.6,0-21.1-9.5-21.1-21.1c0-120.2-97.8-218-218-218c-11.6,0-21.1-9.5-21.1-21.1
		s9.5-21.1,21.1-21.1c143.5,0,260.2,116.7,260.2,260.2C467.5,317.3,458,326.8,446.4,326.8z"/>
	<path class="st0" d="M298.7,158.1v14.1c23.3,0,42.2,18.9,42.2,42.2s-18.9,42.2-42.2,42.2c-23.3,0-42.2-18.9-42.2-42.2h-14.1
		c0,31,25.2,56.2,56.3,56.2s56.2-25.2,56.2-56.2S329.7,158.1,298.7,158.1z"/>
	<path class="st0" d="M228.4,172.1c15.5,0,28.1-12.6,28.1-28.1s-12.6-28.1-28.1-28.1s-28.1,12.6-28.1,28.1S212.9,172.1,228.4,172.1z
		 M228.4,129.9c7.8,0,14.1,6.3,14.1,14.1c0,7.8-6.3,14.1-14.1,14.1c-7.8,0-14.1-6.3-14.1-14.1S220.7,129.9,228.4,129.9z"/>
	<path class="st0" d="M228.4,277.6c-15.5,0-28.1,12.6-28.1,28.1s12.6,28.1,28.1,28.1s28.1-12.6,28.1-28.1S243.9,277.6,228.4,277.6z
		 M228.4,319.8c-7.8,0-14.1-6.3-14.1-14.1s6.3-14.1,14.1-14.1c7.8,0,14.1,6.3,14.1,14.1S236.2,319.8,228.4,319.8z"/>
	<path class="st0" d="M186.2,256.5h14.1v14.1h-14.1V256.5z"/>
	<path class="st0" d="M369,228.4h14.1v14.1H369V228.4z"/>
	<path class="st0" d="M108.9,369h14.1v14.1h-14.1V369z"/>
	<path class="st0" d="M94.8,411.2h14.1v14.1H94.8V411.2z"/>
	<path class="st0" d="M214.4,186.2h14.1v14.1h-14.1V186.2z"/>
	<path class="st0" d="M172.2,214.3h14.1v14.1h-14.1V214.3z"/>
	<path class="st0" d="M340.9,256.5H355v14.1h-14.1V256.5z"/>
	<path class="st0" d="M179.2,347.9h14.1V362h-14.1V347.9z"/>
	<path class="st0" d="M214.4,228.4h14.1v14.1h-14.1V228.4z"/>
	<path class="st0" d="M270.6,291.7h14.1v14.1h-14.1V291.7z"/>
	<path class="st0" d="M369,284.6h14.1v14.1H369V284.6z"/>
</g>
</svg>
