<?xml version="1.0" encoding="utf-8"?>
<!-- Generator: Adobe Illustrator 28.3.0, SVG Export Plug-In . SVG Version: 6.00 Build 0)  -->
<svg version="1.1" id="Layer_1" xmlns="http://www.w3.org/2000/svg" xmlns:xlink="http://www.w3.org/1999/xlink" x="0px" y="0px"
	 viewBox="0 0 512 512" style="enable-background:new 0 0 512 512;" xml:space="preserve">
<style type="text/css">
	.st0{fill:#BD3723;}
</style>
<g>
	<path class="st0" d="M114.4,202.4c8.9-69.5,46.5-112.8,113.5-131.5c-0.4-4.8-0.9-9.9-1.3-15c-1.3-14.6,6.8-23.7,21.5-24
		c5.8-0.1,11.6-0.1,17.4,0c13.6,0.4,21.7,9.1,21,22.8c-0.3,5.3-1,10.7-1.5,16c66.9,18.7,104.9,62,113.5,131.5c2.5,0,5.1-0.2,7.7,0
		c8.6,0.6,14.1,4.8,14.9,12.9c0.8,7.9,0.6,16.1-0.3,24c-0.8,7-5.6,10.7-12.6,11.5c-1.6,0.2-3.3,0.3-4.9,0.3
		c-97.8,0-195.6,0-293.4-0.1c-3.8,0-8.1-0.5-11.3-2.3c-10.7-6-10.8-37.4-0.2-43.7c2.7-1.6,6.2-2,9.4-2.6
		C109.9,202,112.2,202.4,114.4,202.4z M402.5,221.2c-3.2,0-5.6,0-8.1,0c-66,0-131.9,0-197.9,0c-8,0-12-3.2-12.1-9.2
		c-0.1-6.1,4.1-9.4,11.9-9.6c1.4,0,2.9,0,4.3,0c56.9,0,113.7,0,170.6,0c2.4,0,4.7,0,7.1,0C375.7,142.8,324.6,87,255.5,87.6
		c-71.6,0.7-119.4,59.6-121,114.7c3.3,0,6.5,0,9.8,0c10.1,0,14.5,2.8,14.6,9.3c0.1,6.6-4.2,9.5-14.3,9.5c-11.3,0-22.6,0-34.2,0
		c0,4,0,7.2,0,10.6c97.5,0,194.7,0,292.1,0C402.5,228.2,402.5,225.1,402.5,221.2z M246.8,68.8c5.8,0,11.5,0.1,17.2-0.1
		c0.8,0,2.2-1.4,2.3-2.3c0.6-5,1-10,1.5-15.3c-7.8,0-14.9,0-22.6,0C245.7,57.1,246.2,62.6,246.8,68.8z"/>
	<path class="st0" d="M256,337.9c-49.4,0-98.8,0-148.3,0c-1.9,0-3.7,0.1-5.6,0c-7-0.3-10.7-3.6-10.7-9.4c0-5.6,3.9-9,10.8-9.4
		c1.4-0.1,2.9,0,4.3,0c99.9,0,199.7,0,299.6,0c2.9,0,5.8,0.1,8.6,0.8c4.6,1.2,6.9,4.8,6.5,9.3c-0.4,4.5-2.9,7.7-7.8,8.3
		c-2.5,0.3-4.9,0.3-7.4,0.3C356.1,338,306.1,337.9,256,337.9z"/>
	<path class="st0" d="M207.6,481.7c-34.1,0-68.2,0-102.3,0c-2.5,0-5.6,0.6-7.3-0.6c-2.7-2-6-5.2-6.1-8.1c-0.2-2.9,2.5-6.7,5.1-8.7
		c1.9-1.5,5.5-1.3,8.3-1.3c68.4-0.1,136.8,0,205.2,0c0.8,0,1.7,0,2.5,0c7.2,0.2,11.5,3.8,11.5,9.5c0,5.7-4.3,9.3-11.6,9.3
		C277.9,481.8,242.8,481.7,207.6,481.7z"/>
	<path class="st0" d="M117.3,390.8c0,14,0.1,28,0,42c0,6.3-2.8,8.6-8.9,7.8c-3.6-0.4-5.6-2.1-5.6-6c0-22.5-0.1-45,0.2-67.6
		c0-2.4,2.4-6,4.6-6.9c4.2-1.7,8.8-0.7,11.4,3.7c4.2,6.9,8,14,12,21c1.1,2,2.2,3.9,3.8,6.8c1.3-2.2,2.4-3.7,3.3-5.4
		c4.2-7.4,8.2-14.8,12.5-22.1c2.7-4.6,7.2-5.4,11.9-4.1c4.5,1.2,4.7,5.2,4.7,9c0,21.3-0.1,42.6,0.1,63.8c0,5.2-1.8,7.8-7.1,7.9
		c-5.5,0.1-7.7-2.4-7.7-8c0.2-13.8,0.1-27.7-1.1-42c-3.4,5.9-6.5,12-10.2,17.7c-1.5,2.4-4.3,5.5-6.5,5.4c-2.2,0-4.9-3.2-6.4-5.6
		c-3.5-5.7-6.5-11.8-9.7-17.8C118.3,390.7,117.8,390.8,117.3,390.8z"/>
	<path class="st0" d="M304.3,405.5c0-12.7,0.1-25.4-0.1-38.1c-0.1-5.1,1.8-7.8,7.1-7.8c5,0,7.6,1.7,7.5,7.3
		c-0.2,21.5-0.1,43-0.1,64.5c0,3.6,0.9,7.9-4.2,9c-5.1,1.1-9.3-0.1-12-5.2c-6-11.5-12.3-23-18.4-34.4c-1.2-2.3-2.5-4.6-5-6.7
		c0,13.1,0,26.1,0,39.2c0,5.9-2.2,7.7-7.8,7.6c-5.1-0.2-6.6-3-6.6-7.7c0.1-21.7-0.1-43.4,0.2-65.1c0-2.6,1.9-7.3,3.4-7.4
		c3.7-0.4,8,0.5,11.3,2.2c2.2,1.1,3.3,4.6,4.6,7.2c6.2,11.9,12.4,23.8,18.6,35.7C303.3,405.6,303.8,405.5,304.3,405.5z"/>
	<path class="st0" d="M344.5,392.4c0-8.3,0.2-16.5-0.1-24.8c-0.2-5.4,1.7-8.1,7.4-8.1c5.9,0,7.2,3.2,7.1,8.4
		c-0.2,15.3-0.2,30.6,0,45.9c0.1,11.1,5.1,16,14.2,14.7c6.8-0.9,10.1-4.5,10.2-12.4c0.2-16.1,0.1-32.2,0.1-48.4c0-6.8,2.6-9,9.1-8.1
		c3.7,0.5,5.6,2.4,5.5,6.1c-0.1,17.6,0.4,35.2-0.4,52.7c-0.7,15.7-10.9,23.6-27.8,23.1c-16-0.5-24.7-8.7-25.2-24.4
		C344.4,409,344.6,400.7,344.5,392.4C344.6,392.4,344.6,392.4,344.5,392.4z"/>
	<path class="st0" d="M207.9,372.2c0,7.7,0,14.5,0,22.3c5.1,0,9.9,0.1,14.8,0c4.1-0.1,6.4,1.8,6.4,5.7c0,4-2.5,5.8-6.5,5.6
		c-4.7-0.1-9.4,0-14.5,0c0,7.5,0,14.5,0,22.4c9.4,0,18.8-0.3,28.2,0.2c2.4,0.1,5.9,2.2,6.9,4.3c2.1,4.5-0.7,8.1-5.8,8.1
		c-12.4,0.1-24.8,0-37.2,0c-4.8,0-7-2.1-7-7.2c0.2-22.3,0.2-44.6,0-66.9c0-5.1,2.1-7.2,6.9-7.2c12.4,0,24.8,0.1,37.2-0.1
		c4.6,0,6.4,2.3,6.3,6.5c-0.1,4.2-2.3,6.3-6.7,6.3C227.5,372.1,218,372.2,207.9,372.2z"/>
	<path class="st0" d="M385.7,481.7c-8.5,0-16.9,0.1-25.4,0c-6.3-0.1-10.3-3.8-10.5-9c-0.1-5.3,3.8-9.5,10-9.6
		c17.1-0.2,34.3-0.2,51.4,0c6.2,0.1,10.3,4.2,10.2,9.5c0,5.3-4.1,9-10.4,9.2C402.6,481.8,394.2,481.7,385.7,481.7z"/>
</g>
</svg>
