<?xml version="1.0" encoding="utf-8"?>
<!-- Generator: Adobe Illustrator 28.3.0, SVG Export Plug-In . SVG Version: 6.00 Build 0)  -->
<svg version="1.1" id="Layer_1" xmlns="http://www.w3.org/2000/svg" xmlns:xlink="http://www.w3.org/1999/xlink" x="0px" y="0px"
	 viewBox="0 0 512 512" style="enable-background:new 0 0 512 512;" xml:space="preserve">
<style type="text/css">
	.st0{fill:#BD3723;}
</style>
<path class="st0" d="M102.7,491.8c-14.9-5-14.7-17.2-13.8-30.2c-9.6,0.3-18.6-0.7-23.9-9.1c-2.5-4-4.3-9.3-4.2-14.1
	c0.1-12.6,8.3-18.5,27.6-20.7c0-9.6,0-19.3,0-29.5c-9,0.5-17.9-0.4-23.2-8.6c-2.6-4-4.4-9.3-4.4-14c-0.1-12.8,8.4-18.8,27.7-21
	c0-9.5,0-19.1,0-29.1c-2.5-0.2-5.1-0.3-7.6-0.5c-11.6-1-20.1-9.8-20.4-20.9c-0.3-11.1,7.7-20.3,19.3-22c2.7-0.4,5.5-0.4,8.6-0.6
	c0-9.6,0-19.1,0-29.1c-15.4,0.1-27.1-5.1-27.6-22.8c-0.1-4.1,2-8.8,4.4-12.1c2.4-3.2,6.3-5.8,10.1-7.3c4-1.6,8.6-1.5,13.2-2.1
	c0-9.5,0-19.1,0-29.1c-8.8,0.3-17.5-0.3-22.8-8.1c-2.7-4-4.6-9.1-5-13.8c-0.6-7.1,2.5-13.7,8.8-17.1c5.5-3,12.1-4,18.9-6.2
	c0-8.2,0-17.8,0-27.9c-2.3-0.1-4.7-0.2-7-0.3c-11.6-0.6-20.5-9.5-20.9-20.9c-0.3-11.5,8.4-21.2,20.1-22.2c2.5-0.2,5.1,0,8.2,0
	c0-4.4-0.1-8.2,0-11.9C89,29.2,96.1,22,107.2,21.9c10.7-0.1,21.4,0,32.1,0c97.7,0,195.5,0,293.2,0c14.9,0,21.6,6.7,21.6,21.5
	c0,141.6-0.1,283.2,0.1,424.9c0,11.1-3,19.3-13.8,23.6C327.9,491.8,215.3,491.8,102.7,491.8z M102.6,256.9c0,71.1,0,142.3,0,213.4
	c0,7.3,0.4,7.7,7.9,7.7c107.3,0,214.5,0,321.8,0c7.4,0,8-0.6,8-8.2c0-142,0-283.9,0-425.9c0-7.6-0.6-8.2-8-8.2
	c-107.3,0-214.5,0-321.8,0c-7.4,0-7.9,0.4-7.9,7.7C102.6,114.6,102.6,185.7,102.6,256.9z M88.3,81.3c0-5.2,0-10.1,0-15.1
	c-4.9-0.2-10.1-1.1-12.5,3.9c-1.1,2.2-0.9,5.9,0.2,8C78.8,82.9,83.8,81.6,88.3,81.3z M88.4,154.7c0-5.3,0-10.1,0-15.1
	c-4.8-0.3-9.9-1.4-12.5,3.5c-1.1,2.1-1.2,5.9,0,8C78.5,156,83.5,154.9,88.4,154.7z M88.5,358.9c-5,0-10.1-1.1-12.6,3.9
	c-1.1,2.2-1,5.9,0.2,8c2.7,4.8,7.7,3.7,12.5,3.4C88.5,369.1,88.5,364.3,88.5,358.9z M88.4,432.3c-5-0.2-9.8-1.2-12.8,3.6
	c-1.8,2.9-1.7,5.9,0.4,8.5c3.2,4.1,7.7,3.4,12.4,3C88.4,442.3,88.4,437.5,88.4,432.3z M88.5,212.8c-5.1-0.2-10.1-1.3-13.1,3.8
	c-1.7,2.9-1.4,6,0.8,8.5c3.4,3.8,7.8,3.1,12.2,2.7C88.5,222.6,88.5,218,88.5,212.8z M88.5,285.8c-4.9,0-9.6-1.1-12.7,3.6
	c-1.9,2.8-1.8,5.8,0.2,8.5c3.3,4.5,7.9,3.3,12.6,3C88.5,295.8,88.5,291.1,88.5,285.8z"/>
<path class="st0" d="M166.3,216.5c6.6-51.4,34.4-83.4,84-97.3c-0.3-3.5-0.7-7.3-1-11.1c-1-10.8,5-17.5,15.9-17.7
	c4.3-0.1,8.6-0.1,12.8,0c10.1,0.3,16,6.8,15.5,16.9c-0.2,3.9-0.7,7.9-1.1,11.9c49.5,13.8,77.6,45.9,83.9,97.3c1.8,0,3.8-0.1,5.7,0
	c6.3,0.4,10.5,3.5,11,9.5c0.6,5.9,0.5,11.9-0.2,17.8c-0.6,5.2-4.1,7.9-9.3,8.5c-1.2,0.1-2.4,0.2-3.7,0.2c-72.3,0-144.7,0-217-0.1
	c-2.8,0-6-0.4-8.3-1.7c-7.9-4.4-8-27.7-0.2-32.3c2-1.2,4.6-1.5,6.9-1.9C163,216.3,164.7,216.5,166.3,216.5z M379.5,230.5
	c-2.3,0-4.2,0-6,0c-48.8,0-97.6,0-146.4,0c-6,0-8.9-2.3-8.9-6.8c0-4.5,3-7,8.8-7.1c1.1,0,2.1,0,3.2,0c42.1,0,84.1,0,126.2,0
	c1.7,0,3.5,0,5.2,0c-2-44.1-39.8-85.3-90.9-84.9c-53,0.5-88.3,44.1-89.5,84.9c2.4,0,4.8,0,7.3,0c7.5,0,10.8,2.1,10.8,6.9
	c0.1,4.9-3.1,7-10.6,7c-8.4,0-16.7,0-25.3,0c0,3,0,5.3,0,7.8c72.1,0,144.1,0,216,0C379.5,235.6,379.5,233.4,379.5,230.5z
	 M264.3,117.8c4.3,0,8.5,0.1,12.7-0.1c0.6,0,1.6-1,1.7-1.7c0.5-3.7,0.7-7.4,1.1-11.3c-5.8,0-11,0-16.7,0
	C263.4,109.1,263.8,113.2,264.3,117.8z"/>
<path class="st0" d="M271.1,316.8c-36.6,0-73.1,0-109.7,0c-1.4,0-2.8,0-4.1,0c-5.2-0.2-8-2.7-7.9-6.9c0-4.2,2.9-6.7,8-7
	c1.1-0.1,2.1,0,3.2,0c73.9,0,147.8,0,221.6,0c2.1,0,4.3,0.1,6.3,0.6c3.4,0.9,5.1,3.5,4.8,6.9c-0.3,3.3-2.2,5.7-5.7,6.2
	c-1.8,0.2-3.7,0.2-5.5,0.2C345.1,316.8,308.1,316.8,271.1,316.8z"/>
<path class="st0" d="M235.3,423.2c-25.2,0-50.5,0-75.7,0c-1.8,0-4.1,0.4-5.4-0.5c-2-1.5-4.4-3.8-4.5-6c-0.1-2.1,1.9-4.9,3.8-6.4
	c1.4-1.1,4.1-1,6.2-1c50.6,0,101.2,0,151.8,0c0.6,0,1.2,0,1.8,0c5.3,0.2,8.5,2.8,8.5,7c0,4.2-3.2,6.8-8.5,6.9
	C287.3,423.2,261.3,423.2,235.3,423.2z"/>
<path class="st0" d="M168.4,356c0,10.4,0,20.7,0,31.1c0,4.7-2,6.3-6.6,5.8c-2.6-0.3-4.2-1.6-4.2-4.4c0-16.7-0.1-33.3,0.2-50
	c0-1.8,1.8-4.5,3.4-5.1c3.1-1.3,6.5-0.5,8.4,2.7c3.1,5.1,5.9,10.3,8.9,15.5c0.8,1.5,1.6,2.9,2.8,5.1c1-1.6,1.8-2.8,2.5-4
	c3.1-5.4,6.1-10.9,9.3-16.3c2-3.4,5.4-4,8.8-3.1c3.3,0.9,3.5,3.8,3.5,6.7c0,15.7-0.1,31.5,0,47.2c0,3.8-1.4,5.7-5.2,5.8
	c-4.1,0.1-5.7-1.8-5.7-5.9c0.1-10.2,0-20.5-0.8-31c-2.5,4.4-4.8,8.9-7.6,13.1c-1.1,1.7-3.2,4-4.8,4c-1.6,0-3.6-2.3-4.7-4.1
	c-2.6-4.2-4.8-8.8-7.2-13.2C169.2,355.8,168.8,355.9,168.4,356z"/>
<path class="st0" d="M306.8,366.8c0-9.4,0.1-18.8,0-28.2c0-3.8,1.3-5.8,5.3-5.8c3.7,0,5.6,1.3,5.6,5.4c-0.1,15.9-0.1,31.8-0.1,47.7
	c0,2.7,0.7,5.9-3.1,6.7c-3.8,0.8-6.9-0.1-8.9-3.9c-4.5-8.5-9.1-17-13.6-25.5c-0.9-1.7-1.9-3.4-3.7-5c0,9.7,0,19.3,0,29
	c0,4.3-1.6,5.7-5.8,5.6c-3.8-0.1-4.9-2.2-4.9-5.7c0.1-16.1-0.1-32.1,0.1-48.2c0-1.9,1.4-5.4,2.5-5.5c2.7-0.3,5.9,0.4,8.4,1.6
	c1.6,0.8,2.4,3.4,3.4,5.3c4.6,8.8,9.2,17.6,13.7,26.4C306,366.9,306.4,366.8,306.8,366.8z"/>
<path class="st0" d="M336.6,357.2c0-6.1,0.2-12.2-0.1-18.3c-0.1-4,1.2-6,5.4-6c4.3,0,5.3,2.4,5.3,6.2c-0.1,11.3-0.1,22.6,0,33.9
	c0.1,8.2,3.7,11.8,10.5,10.9c5.1-0.7,7.5-3.4,7.5-9.2c0.1-11.9,0-23.9,0.1-35.8c0-5,1.9-6.6,6.7-6c2.7,0.4,4.1,1.8,4.1,4.5
	c-0.1,13,0.3,26-0.3,39c-0.5,11.6-8.1,17.5-20.6,17.1c-11.9-0.3-18.3-6.4-18.7-18C336.5,369.4,336.6,363.3,336.6,357.2
	C336.6,357.2,336.6,357.2,336.6,357.2z"/>
<path class="st0" d="M235.5,342.2c0,5.7,0,10.7,0,16.5c3.7,0,7.3,0.1,10.9,0c3-0.1,4.8,1.3,4.8,4.2c0,3-1.8,4.3-4.8,4.2
	c-3.5-0.1-7,0-10.7,0c0,5.6,0,10.7,0,16.6c6.9,0,13.9-0.2,20.9,0.1c1.8,0.1,4.4,1.6,5.1,3.2c1.5,3.4-0.5,6-4.3,6
	c-9.2,0.1-18.3,0-27.5,0c-3.6,0-5.2-1.5-5.2-5.3c0.1-16.5,0.1-33,0-49.5c0-3.8,1.6-5.3,5.1-5.3c9.2,0,18.3,0,27.5,0
	c3.4,0,4.7,1.7,4.7,4.8c-0.1,3.1-1.7,4.7-5,4.6C250,342.1,243,342.2,235.5,342.2z"/>
<path class="st0" d="M367,423.2c-6.3,0-12.5,0.1-18.8,0c-4.7-0.1-7.6-2.8-7.7-6.7c-0.1-3.9,2.8-7,7.4-7.1c12.7-0.2,25.4-0.2,38.1,0
	c4.6,0.1,7.6,3.1,7.6,7c0,3.9-3,6.7-7.7,6.8C379.6,423.3,373.3,423.2,367,423.2z"/>
</svg>
